<svg width="50" height="58" viewBox="0 0 50 58" fill="none" xmlns="http://www.w3.org/2000/svg">
<path fill-rule="evenodd" clip-rule="evenodd" d="M25 32.9791C29.416 32.9791 33 29.3974 33 24.9843C33 20.5711 29.416 16.9895 25 16.9895C20.584 16.9895 17 20.5711 17 24.9843C17 29.3974 20.584 32.9791 25 32.9791Z" fill="#FD3301"/>
<path fill-rule="evenodd" clip-rule="evenodd" d="M49 24.9843C49 44.9712 29 56.9635 25 56.9635C21 56.9635 1 44.9712 1 24.9843C1 11.7409 11.748 1 25 1C38.252 1 49 11.7409 49 24.9843Z" fill="#FD3301"/>
<path fill-rule="evenodd" clip-rule="evenodd" d="M25 32.9791C29.416 32.9791 33 29.3974 33 24.9843C33 20.5711 29.416 16.9895 25 16.9895C20.584 16.9895 17 20.5711 17 24.9843C17 29.3974 20.584 32.9791 25 32.9791Z" stroke="#FD3301" stroke-linecap="square"/>
<path fill-rule="evenodd" clip-rule="evenodd" d="M49 24.9843C49 44.9712 29 56.9635 25 56.9635C21 56.9635 1 44.9712 1 24.9843C1 11.7409 11.748 1 25 1C38.252 1 49 11.7409 49 24.9843Z" stroke="#FD3301" stroke-linecap="square"/>
</svg>
